<?xml version="1.0" standalone="no"?>
<!DOCTYPE svg PUBLIC "-//W3C//DTD SVG 20010904//EN"
 "http://www.w3.org/TR/2001/REC-SVG-20010904/DTD/svg10.dtd">
<svg version="1.0" xmlns="http://www.w3.org/2000/svg"
 width="200.000000pt" height="201.000000pt" viewBox="0 0 200.000000 201.000000"
 preserveAspectRatio="xMidYMid meet">

<g transform="translate(0.000000,201.000000) scale(0.100000,-0.100000)"
fill="#000000" stroke="none">
<path d="M1001 1800 l-1 -45 -50 3 c-99 7 -228 -50 -307 -136 -13 -15 -39 -56
-56 -92 l-32 -65 -3 -230 c-1 -126 1 -235 5 -241 4 -7 74 -50 155 -97 147 -86
165 -90 151 -38 -3 11 -2 41 2 67 5 34 10 43 18 35 15 -12 83 89 107 159 l16
47 67 -39 67 -39 -25 -49 c-14 -27 -39 -71 -55 -97 -17 -26 -35 -64 -40 -85
-6 -20 -18 -39 -28 -43 -9 -3 -26 -12 -36 -20 -19 -14 -19 -15 0 -50 10 -19
22 -35 25 -35 4 0 42 20 85 45 44 25 83 45 87 45 4 0 7 -30 5 -67 l-3 -68 -72
-43 -73 -44 0 -59 c0 -33 3 -58 8 -56 104 59 210 124 219 136 13 16 19 361 7
361 -3 0 -43 -22 -90 -50 -47 -27 -87 -50 -89 -50 -3 0 10 24 29 53 19 29 39
73 46 97 7 25 14 50 16 57 2 8 42 -10 109 -49 l105 -61 0 -181 c0 -100 -4
-196 -9 -214 -9 -30 -8 -34 17 -43 115 -44 270 49 344 208 73 155 36 328 -93
441 -60 52 -355 222 -386 222 -13 0 -56 -18 -94 -41 -38 -22 -74 -37 -80 -33
-18 10 -52 95 -42 104 18 17 181 100 196 100 23 0 22 43 -2 96 -21 47 -92 99
-158 117 -38 10 -43 15 -49 47 -10 63 -12 66 -13 20z m-17 -156 c12 -5 16 -20
16 -63 l0 -56 -97 -55 c-53 -30 -102 -61 -110 -68 -10 -10 -13 -59 -13 -212 0
-120 -4 -201 -10 -205 -10 -6 -95 39 -105 55 -3 5 -6 96 -7 202 -1 208 4 234
57 304 56 74 198 125 269 98z m82 -30 c19 -9 34 -19 34 -23 0 -4 -18 -17 -40
-30 l-40 -22 0 45 c0 25 3 46 6 46 3 0 21 -7 40 -16z m-66 -284 c0 -67 -1 -70
-29 -85 -42 -21 -46 -33 -17 -47 14 -6 26 -15 26 -20 0 -5 -18 -36 -41 -69
-22 -33 -47 -74 -54 -92 -13 -29 -14 -16 -15 140 l0 172 58 35 c31 19 60 35
65 35 4 1 7 -30 7 -69z m21 -53 c-8 -8 -11 0 -10 29 1 39 1 39 11 11 7 -21 7
-32 -1 -40z m389 -97 c69 -39 138 -84 153 -98 97 -91 115 -245 41 -357 -28
-43 -89 -95 -111 -95 -10 0 -13 36 -13 178 0 127 -4 183 -12 194 -15 19 -279
175 -304 180 -9 2 -23 13 -31 24 -13 21 -11 23 39 52 52 31 53 31 83 13 16
-10 86 -51 155 -91z m-393 -422 c-3 -7 -5 -2 -5 12 0 14 2 19 5 13 2 -7 2 -19
0 -25z"/>
<path d="M1020 1105 c0 -22 -9 -60 -20 -84 -20 -44 -26 -128 -11 -166 6 -14 9
-7 14 30 3 28 15 72 27 99 17 38 21 60 16 95 -8 60 -26 78 -26 26z"/>
<path d="M397 892 c-122 -125 -26 -410 169 -499 30 -14 84 -30 119 -36 58 -10
70 -9 142 15 43 15 99 38 126 53 l47 27 0 59 c0 32 -1 59 -3 59 -2 0 -39 -20
-83 -45 -120 -69 -168 -78 -264 -49 -79 23 -160 107 -183 190 -16 57 -22 114
-13 114 3 0 74 -40 159 -90 85 -49 162 -90 171 -90 10 0 49 18 86 41 l69 41
-22 38 -22 39 -46 -26 -47 -25 -163 96 c-90 53 -173 103 -185 111 -19 14 -23
12 -57 -23z"/>
</g>
</svg>
